# xmcd
# 
# Track frame offsets:
#     150
#     19862
#     44844
#     64110
#     84237
#     104499
#     140802
# 
# Disc length: 2083
# 
# Revision: 1
# Processed by: cddbd v1.5.2PL0 Copyright (c) Steve Scherf et al.
# Submitted via: BonkEnc v1.0
# 
DISCID=62082107
DTITLE=王様 - しろあんこ伝説
DYEAR=2003
DGENRE=Blues
TTITLE0=爆裂山寺物語
TTITLE1=白い部屋
TTITLE2=ああ愉快
TTITLE3=政治家
TTITLE4=十字路
TTITLE5=大さじ一杯
TTITLE6=白い部屋（上方ツッコミ付
EXTD=YEAR: 2003
EXTT0=
EXTT1=
EXTT2=
EXTT3=
EXTT4=
EXTT5=
EXTT6=
PLAYORDER=
